<?xml version="1.0" encoding="UTF-8"?>
<svg id="Layer_1" xmlns="http://www.w3.org/2000/svg" version="1.1" viewBox="0 0 842.84 187.5">
  <!-- Generator: Adobe Illustrator 30.6.0, SVG Export Plug-In . SVG Version: 2.1.4 Build 109)  -->
  <defs>
    <linearGradient id="ceotecaBrandGradient" x1="0" y1="0" x2="842.84" y2="187.5" gradientUnits="userSpaceOnUse">
      <stop offset="0" stop-color="#4f63ff"/>
      <stop offset="0.48" stop-color="#7c3aed"/>
      <stop offset="1" stop-color="#ec4899"/>
    </linearGradient>
    <style>
      .st0 {
        fill: url(#ceotecaBrandGradient);
      }
    </style>
  </defs>
  <path class="st0" d="M55.54,97.05c.04-7.29,4.63-11.24,10.15-14.27l81.04-44.56c1.43-.78,3.42-.82,4.56-.27.99.48,2.52,2.48,2.52,3.76l.09,27.25c0,2.76-1.47,4.31-3.79,5.58l-57.44,31.67c-2.62,1.45-3.85,5.22-3.84,7.95l.1,27.73c.01,3.34,5,5.64,8.14,3.93l56.71-30.95.06,30.28c0,1.79-1.3,3.86-2.61,5.09l-58.9,33.18c-7.29,4.11-14.46,5.9-22.07,1.56l-59.31-33.81C4.69,147.61.03,142.46.02,134.72L0,61.4c0-5.56,2.66-12.12,7.66-14.92L89.2.76c2.03-1.14,4.44-.88,6.01,0,1.79.99,2.83,3.2,2.8,5.36l-.16,12.46L28.79,56.37c-7.34,4.02-12.71,10.28-12.74,19.17l-.08,29.91c0,1.89,1.11,4.11,2.64,4.99l5.27,3.04c.57.33,2.26.33,2.8.01.64-.37,1.31-1.8,1.31-2.75l.03-31.68c0-6.05,4.44-10.59,9.47-13.36L119.14,20.72c1.31-.72,3.5-.74,4.79-.18,1.1.47,2.41,2.34,2.41,3.78l-.05,11.51-73.73,40.35c-5.68,3.11-9.07,10.62-9.07,16.89l-.03,60.5c3.05,5.94,11.71,8.46,11.73,5l.36-61.51Z"/>
  <g>
    <path class="st0" d="M260.08,139.69c-5.19,1.96-10.85,2.94-16.98,2.94-9.79,0-18.3-2.13-25.53-6.38-7.23-4.25-12.77-9.98-16.6-17.17-3.83-7.19-5.75-15.08-5.75-23.68,0-9.45,1.92-17.87,5.75-25.28,3.83-7.4,9.19-13.17,16.09-17.3,6.89-4.13,14.85-6.19,23.87-6.19,5.7,0,10.98.77,15.83,2.3,4.85,1.53,9.11,3.45,12.77,5.75l-7.28,17.49c-6.72-5.11-13.62-7.66-20.68-7.66-4.77,0-9.24,1.32-13.4,3.96-4.17,2.64-7.49,6.24-9.96,10.79-2.47,4.55-3.7,9.6-3.7,15.13,0,6.04,1.15,11.34,3.45,15.89,2.3,4.55,5.57,8.11,9.83,10.66,4.26,2.55,9.23,3.83,14.94,3.83,4.6,0,8.72-.74,12.38-2.23,3.66-1.49,6.55-3.26,8.68-5.3l7.66,16.6c-2.38,1.96-6.17,3.92-11.36,5.87Z"/>
    <path class="st0" d="M360.42,47.65v17.87h-45.57v20.04h40.34v17.87h-40.34v20.3h47.36v17.87h-65.87V47.65h64.09Z"/>
    <path class="st0" d="M388.44,70.89c4.3-7.4,10.13-13.3,17.49-17.68,7.36-4.38,15.34-6.57,23.94-6.57s16.57,2.19,23.94,6.57c7.36,4.38,13.23,10.28,17.62,17.68,4.38,7.4,6.57,15.36,6.57,23.87s-2.19,16.68-6.57,24c-4.38,7.32-10.26,13.13-17.62,17.43-7.36,4.3-15.34,6.45-23.94,6.45s-16.68-2.15-24-6.45c-7.32-4.3-13.13-10.11-17.43-17.43-4.3-7.32-6.45-15.32-6.45-24s2.15-16.47,6.45-23.87ZM405.03,109.82c2.6,4.6,6.13,8.23,10.6,10.91,4.47,2.68,9.42,4.02,14.87,4.02s10.09-1.34,14.43-4.02,7.74-6.3,10.21-10.85c2.47-4.55,3.7-9.59,3.7-15.13s-1.28-10.72-3.83-15.32c-2.55-4.6-6.02-8.23-10.4-10.91-4.38-2.68-9.26-4.02-14.62-4.02s-10.23,1.34-14.62,4.02c-4.38,2.68-7.85,6.32-10.4,10.91s-3.83,9.7-3.83,15.32,1.3,10.47,3.89,15.06Z"/>
    <path class="st0" d="M556.63,47.65v17.87h-22.85v76.09h-18.51v-76.09h-21.96v-17.87h63.32Z"/>
    <path class="st0" d="M644.97,47.65v17.87h-45.57v20.04h40.34v17.87h-40.34v20.3h47.36v17.87h-65.87V47.65h64.09Z"/>
    <path class="st0" d="M731.4,139.69c-5.19,1.96-10.85,2.94-16.98,2.94-9.79,0-18.3-2.13-25.53-6.38-7.23-4.25-12.77-9.98-16.6-17.17-3.83-7.19-5.74-15.08-5.74-23.68,0-9.45,1.92-17.87,5.74-25.28,3.83-7.4,9.19-13.17,16.09-17.3,6.89-4.13,14.85-6.19,23.87-6.19,5.7,0,10.98.77,15.83,2.3,4.85,1.53,9.11,3.45,12.77,5.75l-7.28,17.49c-6.72-5.11-13.62-7.66-20.68-7.66-4.77,0-9.24,1.32-13.4,3.96-4.17,2.64-7.49,6.24-9.96,10.79-2.47,4.55-3.7,9.6-3.7,15.13,0,6.04,1.15,11.34,3.45,15.89,2.3,4.55,5.57,8.11,9.83,10.66,4.25,2.55,9.23,3.83,14.94,3.83,4.6,0,8.72-.74,12.38-2.23,3.66-1.49,6.55-3.26,8.68-5.3l7.66,16.6c-2.38,1.96-6.17,3.92-11.36,5.87Z"/>
    <path class="st0" d="M814.12,123.23h-31.15l-7.66,18.38h-18.26l42.38-97.66h1.02l42.38,97.66h-21.45l-7.28-18.38ZM807.99,107.65l-9.06-22.85-9.45,22.85h18.51Z"/>
  </g>
</svg>
